<svg width="28" height="28" viewBox="0 0 28 28" fill="none" xmlns="http://www.w3.org/2000/svg">
<path d="M5.94271 3.42773H21.9377C22.5437 3.42773 23.1249 3.66847 23.5535 4.097C23.982 4.52552 24.2227 5.10671 24.2227 5.71273V21.7077C24.2227 22.3138 23.982 22.895 23.5535 23.3235C23.1249 23.752 22.5437 23.9927 21.9377 23.9927H5.94271C5.3367 23.9927 4.7555 23.752 4.32698 23.3235C3.89846 22.895 3.65771 22.3138 3.65771 21.7077V5.71273C3.65771 5.10671 3.89846 4.52552 4.32698 4.097C4.7555 3.66847 5.3367 3.42773 5.94271 3.42773ZM20.7952 5.71273H17.939C16.8784 5.71273 15.8613 6.13403 15.1114 6.88394C14.3615 7.63385 13.9402 8.65095 13.9402 9.71148V12.5677H11.6552V15.9952H13.9402V23.9927H17.3677V15.9952H20.7952V12.5677H17.3677V10.2827C17.3677 9.97972 17.4881 9.68913 17.7023 9.47487C17.9166 9.26061 18.2072 9.14023 18.5102 9.14023H20.7952V5.71273Z" fill="#04243D"/>
</svg>
