<svg width="48" height="49" viewBox="0 0 48 49" fill="none" xmlns="http://www.w3.org/2000/svg">
<path d="M44 6.69995H4C1.8 6.69995 0 8.49995 0 10.7V38.7C0 40.9 1.8 42.7 4 42.7H44C46.2 42.7 47.98 40.9 47.98 38.7L48 10.7C48 8.49995 46.2 6.69995 44 6.69995ZM16 12.7C19.32 12.7 22 15.38 22 18.7C22 22.02 19.32 24.7 16 24.7C12.68 24.7 10 22.02 10 18.7C10 15.38 12.68 12.7 16 12.7ZM28 36.7H4V34.7C4 30.7 12 28.5 16 28.5C20 28.5 28 30.7 28 34.7V36.7ZM35.7 28.7H38.98L42 32.7L38.02 36.68C35.4 34.72 33.46 31.92 32.56 28.7C32.2 27.42 32 26.08 32 24.7C32 23.32 32.2 21.98 32.56 20.7C33.46 17.46 35.4 14.68 38.02 12.72L42 16.7L38.98 20.7H35.7C35.26 21.96 35 23.3 35 24.7C35 26.1 35.26 27.44 35.7 28.7Z" fill="white"/>
</svg>
