<svg width="29" height="28" viewBox="0 0 29 28" fill="none" xmlns="http://www.w3.org/2000/svg">
<path d="M9.57181 2.28516H19.1688C22.8248 2.28516 25.7953 5.25566 25.7953 8.91166V18.5087C25.7953 20.2661 25.0972 21.9516 23.8545 23.1943C22.6117 24.437 20.9263 25.1352 19.1688 25.1352H9.57181C5.91581 25.1352 2.94531 22.1647 2.94531 18.5087V8.91166C2.94531 7.1542 3.64346 5.46872 4.88617 4.22601C6.12888 2.9833 7.81436 2.28516 9.57181 2.28516ZM9.34331 4.57016C8.25248 4.57016 7.20632 5.00349 6.43498 5.77483C5.66365 6.54616 5.23031 7.59232 5.23031 8.68316V18.7372C5.23031 21.0107 7.06974 22.8502 9.34331 22.8502H19.3973C20.4881 22.8502 21.5343 22.4168 22.3056 21.6455C23.077 20.8742 23.5103 19.828 23.5103 18.7372V8.68316C23.5103 6.40958 21.6709 4.57016 19.3973 4.57016H9.34331ZM20.3684 6.28391C20.7472 6.28391 21.1105 6.43437 21.3783 6.70219C21.6461 6.97002 21.7966 7.33327 21.7966 7.71203C21.7966 8.09079 21.6461 8.45404 21.3783 8.72187C21.1105 8.98969 20.7472 9.14016 20.3684 9.14016C19.9897 9.14016 19.6264 8.98969 19.3586 8.72187C19.0908 8.45404 18.9403 8.09079 18.9403 7.71203C18.9403 7.33327 19.0908 6.97002 19.3586 6.70219C19.6264 6.43437 19.9897 6.28391 20.3684 6.28391ZM14.3703 7.99766C15.8854 7.99766 17.3384 8.59951 18.4097 9.67081C19.481 10.7421 20.0828 12.1951 20.0828 13.7102C20.0828 15.2252 19.481 16.6782 18.4097 17.7495C17.3384 18.8208 15.8854 19.4227 14.3703 19.4227C12.8553 19.4227 11.4023 18.8208 10.331 17.7495C9.25966 16.6782 8.65781 15.2252 8.65781 13.7102C8.65781 12.1951 9.25966 10.7421 10.331 9.67081C11.4023 8.59951 12.8553 7.99766 14.3703 7.99766ZM14.3703 10.2827C13.4613 10.2827 12.5895 10.6438 11.9467 11.2865C11.3039 11.9293 10.9428 12.8011 10.9428 13.7102C10.9428 14.6192 11.3039 15.491 11.9467 16.1338C12.5895 16.7765 13.4613 17.1377 14.3703 17.1377C15.2793 17.1377 16.1511 16.7765 16.7939 16.1338C17.4367 15.491 17.7978 14.6192 17.7978 13.7102C17.7978 12.8011 17.4367 11.9293 16.7939 11.2865C16.1511 10.6438 15.2793 10.2827 14.3703 10.2827Z" fill="#04243D"/>
</svg>
