<svg width="20" height="28" viewBox="0 0 20 28" fill="none" xmlns="http://www.w3.org/2000/svg">
<path d="M15.8333 7.44389H15V5.77734H13.3333V7.44389H6.66667V5.77734H5V7.44389H4.16667C3.24167 7.44389 2.50833 8.19384 2.50833 9.11045L2.5 20.7763C2.5 21.6929 3.24167 22.4429 4.16667 22.4429H15.8333C16.75 22.4429 17.5 21.6929 17.5 20.7763V9.11045C17.5 8.19384 16.75 7.44389 15.8333 7.44389ZM15.8333 20.7763H4.16667V12.4435H15.8333V20.7763ZM7.5 15.7767H5.83333V14.1101H7.5V15.7767ZM10.8333 15.7767H9.16667V14.1101H10.8333V15.7767ZM14.1667 15.7767H12.5V14.1101H14.1667V15.7767ZM7.5 19.1098H5.83333V17.4432H7.5V19.1098ZM10.8333 19.1098H9.16667V17.4432H10.8333V19.1098ZM14.1667 19.1098H12.5V17.4432H14.1667V19.1098Z" fill="#04243D"/>
</svg>
