<svg width="21" height="29" viewBox="0 0 21 29" fill="none" xmlns="http://www.w3.org/2000/svg">
<path d="M5.9571 13.6516C7.1571 16.0098 9.09043 17.9347 11.4488 19.1429L13.2821 17.3097C13.5071 17.0847 13.8404 17.0097 14.1321 17.1097C15.0654 17.418 16.0738 17.5847 17.1071 17.5847C17.5654 17.5847 17.9404 17.9597 17.9404 18.418V21.3261C17.9404 21.7844 17.5654 22.1594 17.1071 22.1594C9.2821 22.1594 2.94043 15.8181 2.94043 7.99368C2.94043 7.53537 3.31543 7.1604 3.77376 7.1604H6.69043C7.14876 7.1604 7.52376 7.53537 7.52376 7.99368C7.52376 9.03527 7.69043 10.0352 7.99876 10.9685C8.09043 11.2601 8.02376 11.5851 7.79043 11.8184L5.9571 13.6516Z" fill="#04243D"/>
</svg>
