<svg width="28" height="28" viewBox="0 0 28 28" fill="none" xmlns="http://www.w3.org/2000/svg">
<path d="M11.5052 17.1374L17.4348 13.7099L11.5052 10.2824V17.1374ZM24.7125 8.19163C24.8611 8.7286 24.9639 9.44838 25.0324 10.3624C25.1124 11.2764 25.1467 12.0647 25.1467 12.7502L25.2152 13.7099C25.2152 16.212 25.0324 18.0514 24.7125 19.2282C24.4269 20.2564 23.7643 20.9191 22.736 21.2047C22.199 21.3532 21.2165 21.4561 19.7084 21.5246C18.2231 21.6046 16.8636 21.6389 15.6068 21.6389L13.7902 21.7074C9.00316 21.7074 6.02123 21.5246 4.84446 21.2047C3.81621 20.9191 3.15356 20.2564 2.86793 19.2282C2.71941 18.6912 2.61658 17.9714 2.54803 17.0574C2.46806 16.1434 2.43378 15.3551 2.43378 14.6696L2.36523 13.7099C2.36523 11.2078 2.54803 9.3684 2.86793 8.19163C3.15356 7.16338 3.81621 6.50073 4.84446 6.2151C5.38143 6.06658 6.36398 5.96375 7.87208 5.8952C9.35733 5.81523 10.7169 5.78095 11.9737 5.78095L13.7902 5.7124C18.5773 5.7124 21.5592 5.8952 22.736 6.2151C23.7643 6.50073 24.4269 7.16338 24.7125 8.19163Z" fill="#04243D"/>
</svg>
